<svg xmlns="http://www.w3.org/2000/svg" viewBox="0 0 210 297"><path
style="opacity:1;fill:#a6a6ad;fill-opacity:1;stroke:none;stroke-width:1;stroke-linecap:square;stroke-linejoin:miter;stroke-miterlimit:4;stroke-dasharray:none;stroke-dashoffset:0;stroke-opacity:1;paint-order:normal"
d="M53.906882 11.162032c-7.065936.0153-20.079909 3.545261-20.079909
6.28282v17.009816L76.14015
23.116857l-.759642-9.427329v-.589629c0-1.7076-.07117-1.823662-2.244826-1.823662-5.37211
0-19.2288-.114205-19.2288-.114205zm108.317418
0s-13.85669.114205-19.2288.114205c-2.17365 0-2.24482.116062-2.24482
1.823662v.589629l-.75965 9.427329 42.31318
11.337811V17.444852c0-2.737559-13.01397-6.267519-20.07991-6.28282z"/><path
style="opacity:1;fill:#e6e7e9;fill-opacity:1;stroke:none;stroke-width:1.39999998;stroke-linecap:round;stroke-linejoin:round;stroke-miterlimit:4;stroke-dasharray:none;stroke-dashoffset:0;stroke-opacity:1;paint-order:normal"
d="M87.620845 11.956813c-.59227 0-1.069187.47692-1.069187 1.06919v1.10277c0
.59227.476917 1.06867 1.069187 1.06867h7.216096c.59227 0 1.069186-.4764
1.069186-1.06867v-1.10277c0-.59227-.476916-1.06919-1.069186-1.06919zm33.408815
0c-.59227 0-1.06919.47692-1.06919 1.06919v1.10277c0 .59227.47692 1.06867 1.06919
1.06867h7.21609c.59227 0 1.06919-.4764
1.06919-1.06867v-1.10277c0-.59227-.47692-1.06919-1.06919-1.06919z"/><path
style="opacity:1;fill:#c9cace;fill-opacity:1;stroke:none;stroke-width:1;stroke-linecap:square;stroke-linejoin:miter;stroke-miterlimit:4;stroke-dasharray:none;stroke-dashoffset:0;stroke-opacity:1;paint-order:normal"
d="M53.410273 13.271683a39.593001 40.065471 0 0 0-39.592936 40.0654 39.593001
40.065471 0 0 0 39.592936 40.0654 39.593001 40.065471 0 0 0
25.387596-9.37092h58.218151a39.593001 40.065471 0 0 0 25.44031 9.37092 39.593001
40.065471 0 0 0 39.59293-40.0654 39.593001 40.065471 0 0
0-39.59293-40.0654z"/><circle
style="opacity:1;fill:#81868a;fill-opacity:1;stroke:none;stroke-width:.99999994;stroke-linecap:square;stroke-linejoin:miter;stroke-miterlimit:4;stroke-dasharray:none;stroke-dashoffset:0;stroke-opacity:1;paint-order:normal"
cx="161.94757" cy="53.620602" r="34.962799"/><rect transform="rotate(51.745)"
ry="9.0704594" rx="9.0704594" y="-117.01262" x="144.42589" height="40.892235"
width="18.140919"
style="opacity:1;fill:#babbc0;fill-opacity:1;stroke:none;stroke-width:1;stroke-linecap:square;stroke-linejoin:miter;stroke-miterlimit:4;stroke-dasharray:none;stroke-dashoffset:0;stroke-opacity:1;paint-order:normal"/><path
style="opacity:.88999999;fill:#bc0519;fill-opacity:1;stroke:none;stroke-width:1;stroke-linecap:square;stroke-linejoin:miter;stroke-miterlimit:4;stroke-dasharray:none;stroke-dashoffset:0;stroke-opacity:1;paint-order:normal"
d="M179.94105 46.62085a7.0826425 7.0826425 0 0 0-7.08277 7.082255 7.0826425
7.0826425 0 0 0 7.08277 7.082771 7.0826425 7.0826425 0 0 0 7.08277-7.082771
7.0826425 7.0826425 0 0 0-7.08277-7.082255z"/><path
style="opacity:.88999999;fill:#d6ab20;fill-opacity:1;stroke:none;stroke-width:1;stroke-linecap:square;stroke-linejoin:miter;stroke-miterlimit:4;stroke-dasharray:none;stroke-dashoffset:0;stroke-opacity:1;paint-order:normal"
d="M161.79849 60.700093a7.0826425 7.0826425 0 0 0-7.08277 7.082772 7.0826425
7.0826425 0 0 0 7.08277 7.082771 7.0826425 7.0826425 0 0 0 7.08225-7.082771
7.0826425 7.0826425 0 0 0-7.08225-7.082772z"/><rect
style="opacity:1;fill:#babbc0;fill-opacity:1;stroke:none;stroke-width:1;stroke-linecap:square;stroke-linejoin:miter;stroke-miterlimit:4;stroke-dasharray:none;stroke-dashoffset:0;stroke-opacity:1;paint-order:normal"
width="18.140919" height="40.892235" x="122.38974" y="-111.40116" rx="9.0704594"
ry="9.0704594" transform="rotate(51.745)"/><path
style="opacity:.88999999;fill:#0047b3;fill-opacity:1;stroke:none;stroke-width:1;stroke-linecap:square;stroke-linejoin:miter;stroke-miterlimit:4;stroke-dasharray:none;stroke-dashoffset:0;stroke-opacity:1;paint-order:normal"
d="M161.89051 32.791233a7.0826425 7.0826425 0 0 0-7.08226 7.08225 7.0826425
7.0826425 0 0 0 7.08226 7.08278 7.0826425 7.0826425 0 0 0 7.08277-7.08278
7.0826425 7.0826425 0 0 0-7.08277-7.08225z"/><path
style="opacity:.88999999;fill:#00804d;fill-opacity:1;stroke:none;stroke-width:1;stroke-linecap:square;stroke-linejoin:miter;stroke-miterlimit:4;stroke-dasharray:none;stroke-dashoffset:0;stroke-opacity:1;paint-order:normal"
d="M143.74794 46.870473a7.0826425 7.0826425 0 0 0-7.08277 7.08277 7.0826425
7.0826425 0 0 0 7.08277 7.08278 7.0826425 7.0826425 0 0 0 7.08278-7.08278
7.0826425 7.0826425 0 0 0-7.08278-7.08277z"/><path
style="opacity:1;fill:#4f5055;fill-opacity:1;stroke:none;stroke-width:.99999982;stroke-linecap:square;stroke-linejoin:miter;stroke-miterlimit:4;stroke-dasharray:none;stroke-dashoffset:0;stroke-opacity:1;paint-order:normal"
d="M94.521974 53.793537c-.62869-.02033-1.26851.17049-1.807641.586528l-7.884274
6.084385c-1.2323.950944-1.458923 2.708545-.507979 3.940844.950944 1.2323
2.708545 1.458923 3.940844.507979l7.884791-6.084384c1.232299-.950945
1.458407-2.708545.507462-3.940845-.534906-.693168-1.324886-1.068366-2.133203-1.094507zm20.599776
0c-.62869-.02033-1.26851.17049-1.80764.586528l-7.88479
6.084385c-1.2323.950944-1.45841 2.708545-.50746 3.940844.95094 1.2323 2.70854
1.458923 3.94084.507979l7.88427-6.084384c1.2323-.950945
1.45893-2.708545.50798-3.940845-.5349-.693168-1.32488-1.068366-2.1332-1.094507z"/><circle
style="opacity:1;fill:#b1b2b7;fill-opacity:1;stroke:none;stroke-width:1.39999998;stroke-linecap:round;stroke-linejoin:round;stroke-miterlimit:4;stroke-dasharray:none;stroke-dashoffset:0;stroke-opacity:1;paint-order:normal"
cx="53.882744" cy="53.431622" r="21.639137"/><path
style="opacity:1;fill:#5a5b60;fill-opacity:1;stroke:none;stroke-width:.69999999;stroke-linecap:round;stroke-linejoin:round;stroke-miterlimit:4;stroke-dasharray:none;stroke-dashoffset:0;stroke-opacity:1;paint-order:normal"
d="M50.158274 37.68341c-1.230808 0-2.221569.990761-2.221569
2.221571v8.319389h-8.319389c-1.23081 0-2.221569.990759-2.221569
2.221569v6.947897c0 1.23081.990759 2.222085 2.221569
2.222085h8.319389v8.318873c0 1.23081.990761 2.222087 2.221569
2.222087h6.947897c1.23081 0 2.222087-.991277
2.222087-2.222087v-8.318873h8.31887c1.23081 0 2.222088-.991275
2.222088-2.222085v-6.947897c0-1.23081-.991278-2.221569-2.222088-2.221569h-8.31887v-8.319389c0-1.23081-.991277-2.221571-2.222087-2.221571z"/><text
xml:space="preserve"
style="font-style:normal;font-variant:normal;font-weight:700;font-stretch:normal;font-size:21.53461266px;line-height:1.25;font-family:snes;-inkscape-font-specification:'snes
Bold';font-variant-ligatures:normal;font-variant-caps:normal;font-variant-numeric:normal;font-feature-settings:normal;text-align:start;letter-spacing:0;word-spacing:0;writing-mode:lr-tb;text-anchor:start;fill:#000;fill-opacity:1;stroke:none;stroke-width:.26458332"
x="-251.35416" y="175.29167"/></svg>
